<?xml version="1.0" encoding="UTF-8"?>
<svg xmlns="http://www.w3.org/2000/svg" viewBox="0 0 1254 1254" role="img" aria-labelledby="title desc">
  <title id="title">Ordo CRM</title>
  <desc id="desc">Логотип Ordo CRM в фирменных цветах</desc>
  <g transform="translate(0,1254) scale(.1,-.1)" stroke="none">
    <path fill="#78c800" d="M3180 7565 c-106 -33 -184 -146 -184 -264 1 -36 8 -82 16 -102 22 -50 73 -105 127 -137 40 -24 56 -27 131 -27 101 0 143 18 207 88 100 108 95 266 -10 372 -80 80 -178 103 -287 70z"/>
    <path fill="#2563eb" d="M2053 7215 c-369 -67 -664 -335 -780 -711 -25 -83 -27 -101 -27 -269 0 -167 2 -186 27 -268 47 -152 133 -305 231 -409 19 -21 39 -38 44 -38 9 0 274 285 280 301 2 5 -12 29 -32 53 -47 57 -101 168 -115 234 -16 75 -14 198 4 266 79 303 400 491 690 406 39 -12 76 -22 82 -23 12 -2 293 308 293 323 0 11 -108 65 -188 94 -150 53 -351 70 -509 41z"/>
    <path fill="#2563eb" d="M2865 6763 c-60 -65 -124 -134 -142 -154 l-34 -36 35 -64 c48 -88 69 -169 69 -264 0 -194 -85 -361 -239 -471 -136 -97 -299 -127 -464 -85 -80 20 -85 20 -101 4 -93 -98 -269 -298 -269 -305 0 -16 182 -95 270 -117 278 -69 582 -12 815 154 69 49 197 179 242 245 77 115 144 286 164 422 16 107 6 290 -20 393 -32 123 -176 395 -210 395 -4 0 -57 -53 -116 -117z"/>
    <path fill="#0f172a" d="M7220 6944 l0 -285 -32 24 c-91 68 -243 117 -362 117 -261 -1 -486 -164 -573 -417 -33 -98 -37 -243 -9 -338 79 -268 310 -439 591 -437 172 1 311 58 430 177 81 81 127 161 155 271 19 72 20 112 20 626 l0 548 -110 0 -110 0 0 -286z m-229 -397 c111 -54 183 -144 215 -267 63 -247 -175 -497 -432 -453 -87 15 -164 55 -220 115 -187 200 -109 523 148 619 79 29 214 23 289 -14z"/>
    <path fill="#0f172a" d="M4584 6790 c-302 -47 -516 -291 -517 -590 0 -306 225 -556 532 -589 88 -9 198 2 274 28 232 80 397 314 397 561 0 193 -105 389 -267 496 -112 74 -290 115 -419 94z m238 -242 c83 -39 142 -98 185 -186 35 -70 38 -83 38 -161 0 -75 -4 -94 -31 -151 -37 -79 -79 -128 -142 -168 -130 -83 -287 -80 -419 8 -105 69 -163 180 -163 308 0 173 103 311 275 369 62 20 191 11 257 -19z"/>
    <path fill="#0f172a" d="M5920 6774 c-83 -17 -213 -81 -273 -134 -62 -55 -141 -176 -169 -258 -21 -63 -23 -86 -26 -409 l-3 -343 110 0 110 0 -1 303 c-2 269 0 308 17 360 51 162 190 266 378 284 l67 6 0 103 0 104 -72 -1 c-40 0 -102 -7 -138 -15z"/>
    <path fill="#2563eb" d="M8125 6794 c-112 -17 -246 -80 -328 -153 -66 -60 -142 -177 -167 -260 -101 -326 89 -668 420 -756 73 -20 236 -19 314 1 191 49 347 197 412 389 39 115 39 256 0 370 -82 239 -286 394 -539 409 -45 2 -95 2 -112 0z m240 -249 c75 -36 143 -103 181 -180 26 -55 29 -69 29 -165 0 -96 -3 -110 -29 -164 -140 -284 -543 -283 -683 2 -25 51 -28 67 -28 162 0 87 4 113 22 153 46 99 126 173 228 210 77 27 202 19 280 -18z"/>
    <path fill="#2563eb" d="M9491 6349 c-53 -17 -76 -32 -126 -82 -82 -82 -108 -147 -109 -272 -1 -81 2 -96 30 -156 65 -137 159 -201 301 -207 107 -5 177 15 245 71 28 23 53 47 55 53 2 6 -12 23 -32 38 l-36 28 -18 -24 c-11 -13 -43 -37 -73 -53 -76 -42 -162 -42 -237 0 -95 53 -141 133 -141 249 0 80 14 126 53 178 96 125 281 143 383 37 35 -36 43 -36 77 -1 l28 29 -46 42 c-64 59 -122 82 -214 87 -58 3 -91 -1 -140 -17z"/>
    <path fill="#2563eb" d="M10047 6173 c1 -104 2 -268 2 -365 l1 -178 45 0 45 0 0 130 0 131 102 -3 103 -3 75 -127 75 -128 52 0 c29 0 53 3 53 7 0 4 -37 65 -82 137 -45 71 -77 131 -71 133 5 2 30 17 55 32 66 42 91 101 86 202 -4 99 -36 150 -117 192 -54 27 -58 27 -240 27 l-186 0 2 -187z m381 83 c77 -41 92 -168 28 -232 -43 -43 -95 -55 -213 -52 l-98 3 -3 154 -3 153 128 -4 c99 -3 136 -8 161 -22z"/>
    <path fill="#2563eb" d="M10770 5994 l0 -365 46 3 45 3 2 268 c1 147 4 267 7 267 3 0 56 -99 118 -220 97 -189 117 -220 136 -220 20 0 39 31 136 220 62 121 117 220 123 220 6 0 8 -50 6 -132 -1 -73 -2 -195 -1 -270 l2 -138 45 0 45 0 0 365 0 365 -52 0 -53 0 -123 -240 c-68 -132 -127 -240 -130 -240 -4 0 -61 108 -126 240 l-119 240 -53 0 -54 0 0 -366z"/>
  </g>
</svg>
